<svg xmlns="http://www.w3.org/2000/svg" width="520" height="2480" viewBox="0 0 520 2480" role="img" aria-label="七 - 荆州花牌平滑矢量牌面">
  <title>七 - 荆州花牌平滑矢量牌面</title>
  <rect x="0" y="0" width="520" height="2480" rx="44" ry="44" fill="#ffffff" />
  <g id="red" fill="#ef2c20" fill-rule="evenodd">
    <path d="M 145.36 1516.87 Q 145.36 1516.87 144.91 1518.05 Q 144.46 1519.24 144.31 1520.72 Q 144.16 1522.19 144.31 1523.97 Q 144.46 1525.74 144.91 1527.81 Q 145.36 1529.89 146.10 1532.25 Q 146.85 1534.62 147.26 1536.39 Q 147.67 1538.17 147.74 1539.35 Q 147.82 1540.53 147.55 1541.13 Q 147.29 1541.72 146.70 1541.72 Q 146.10 1541.72 145.58 1541.46 Q 145.06 1541.20 144.61 1540.68 Q 144.16 1540.16 143.79 1539.39 Q 143.42 1538.61 143.12 1537.58 Q 142.82 1536.54 142.56 1536.02 Q 142.30 1535.51 142.08 1535.51 Q 141.85 1535.51 141.67 1536.02 Q 141.48 1536.54 141.33 1537.58 Q 141.18 1538.61 141.40 1539.54 Q 141.63 1540.46 142.22 1541.27 Q 142.82 1542.09 143.79 1542.79 Q 144.76 1543.49 146.10 1544.08 Q 147.44 1544.68 148.64 1544.93 Q 149.83 1545.19 150.87 1545.12 Q 151.92 1545.05 152.81 1544.64 Q 153.70 1544.23 154.45 1543.49 Q 155.19 1542.75 155.83 1541.83 Q 156.46 1540.90 156.98 1539.79 Q 157.51 1538.69 157.92 1537.39 Q 158.33 1536.10 158.62 1534.62 Q 158.92 1533.14 159.03 1532.14 Q 159.15 1531.14 159.07 1530.62 Q 159.00 1530.11 158.74 1530.07 Q 158.47 1530.03 158.03 1530.48 Q 157.58 1530.92 156.95 1530.66 Q 156.31 1530.40 155.49 1529.44 Q 154.67 1528.48 153.67 1526.82 Q 152.66 1525.15 151.47 1522.79 Q 150.28 1520.42 149.27 1518.94 Q 148.26 1517.46 147.44 1516.87 Q 146.62 1516.28 145.99 1516.57 Z" />
    <path d="M 333.65 1544.53 Q 333.65 1544.53 332.75 1544.68 Q 331.86 1544.82 331.15 1545.16 Q 330.44 1545.49 329.92 1546.01 Q 329.40 1546.52 329.06 1547.23 Q 328.73 1547.93 328.58 1548.82 Q 328.43 1549.70 328.65 1550.55 Q 328.88 1551.41 329.47 1552.22 Q 330.07 1553.03 331.04 1553.81 Q 332.01 1554.58 333.35 1555.32 Q 334.69 1556.06 336.63 1556.62 Q 338.57 1557.17 341.10 1557.54 Q 343.64 1557.91 346.77 1558.10 Q 349.90 1558.28 353.62 1558.28 Q 357.35 1558.28 360.41 1558.06 Q 363.46 1557.84 365.85 1557.40 Q 368.23 1556.95 369.95 1556.29 Q 371.66 1555.62 372.71 1554.73 Q 373.75 1553.85 374.31 1553.03 Q 374.87 1552.22 374.94 1551.48 Q 375.02 1550.74 374.61 1550.07 Q 374.20 1549.41 373.30 1548.82 Q 372.41 1548.23 370.69 1547.71 Q 368.98 1547.19 366.44 1546.75 Q 363.91 1546.30 360.56 1545.93 Q 357.20 1545.56 353.03 1545.27 Q 348.85 1544.97 345.50 1544.79 Q 342.14 1544.60 339.61 1544.53 Q 337.08 1544.45 335.36 1544.49 Z" />
  </g>
  <g id="blue" fill="#1f49c9" fill-rule="evenodd">
    <path d="M 118.67 19.23 Q 118.67 19.23 138.35 19.52 Q 158.03 19.82 168.61 20.71 Q 179.20 21.59 180.69 23.07 Q 182.18 24.55 182.63 29.28 Q 183.07 34.02 182.48 42.00 Q 181.88 49.99 180.84 55.17 Q 179.79 60.34 178.30 62.71 Q 176.81 65.08 175.17 66.85 Q 173.53 68.63 171.74 69.81 Q 169.95 70.99 168.31 73.36 Q 166.67 75.73 165.18 79.27 Q 163.69 82.82 161.46 85.78 Q 159.22 88.74 156.24 91.11 Q 153.26 93.47 151.17 95.69 Q 149.08 97.91 147.89 99.98 Q 146.70 102.05 145.21 103.23 Q 143.72 104.42 141.93 104.71 Q 140.14 105.01 138.35 105.90 Q 136.56 106.78 134.77 108.26 Q 132.98 109.74 131.04 111.81 Q 129.11 113.88 127.02 116.55 Q 124.93 119.21 121.35 120.98 Q 117.78 122.76 112.71 123.65 Q 107.64 124.53 104.36 124.98 Q 101.08 125.42 99.59 125.42 Q 98.10 125.42 96.61 124.68 Q 95.11 123.94 93.62 122.46 Q 92.13 120.98 91.39 109.45 Q 90.64 97.91 90.64 76.32 Q 90.64 54.72 90.79 43.04 Q 90.94 31.35 91.24 29.58 Q 91.54 27.81 92.58 26.03 Q 93.62 24.26 95.41 22.48 Q 97.20 20.71 107.94 19.97 Z" />
    <path d="M 390.30 21.30 Q 390.30 21.30 400.14 21.30 Q 409.98 21.30 415.64 21.74 Q 421.31 22.19 422.80 23.07 Q 424.29 23.96 428.02 24.11 Q 431.74 24.26 437.71 23.66 Q 443.67 23.07 447.69 23.07 Q 451.72 23.07 453.81 23.66 Q 455.89 24.26 457.83 25.59 Q 459.77 26.92 461.56 28.99 Q 463.35 31.06 464.24 43.19 Q 465.14 55.31 465.14 77.50 Q 465.14 99.69 464.39 111.96 Q 463.65 124.24 462.16 126.60 Q 460.67 128.97 458.43 130.15 Q 456.19 131.34 453.21 131.34 Q 450.23 131.34 447.84 130.45 Q 445.46 129.56 443.67 127.79 Q 441.88 126.01 439.50 124.68 Q 437.11 123.35 434.13 122.46 Q 431.15 121.57 428.31 119.36 Q 425.48 117.14 422.80 113.59 Q 420.11 110.04 417.58 107.97 Q 415.05 105.90 412.66 105.31 Q 410.28 104.71 408.64 103.23 Q 407.00 101.76 406.10 99.39 Q 405.21 97.02 402.97 94.36 Q 400.73 91.70 397.16 88.74 Q 393.58 85.78 391.34 82.97 Q 389.11 80.16 388.21 77.50 Q 387.32 74.84 385.83 72.32 Q 384.33 69.81 382.25 67.44 Q 380.16 65.08 379.12 62.86 Q 378.07 60.64 378.07 58.57 Q 378.07 56.50 377.33 54.87 Q 376.58 53.24 375.09 52.06 Q 373.60 50.88 372.56 48.66 Q 371.51 46.44 370.92 43.19 Q 370.32 39.93 370.47 36.98 Q 370.62 34.02 371.51 31.35 Q 372.41 28.69 373.75 26.77 Q 375.09 24.85 376.88 23.66 Q 378.67 22.48 384.48 21.89 Z" />
    <path d="M 302.04 110.63 Q 302.04 110.63 301.15 113.59 Q 300.25 116.55 299.21 118.17 Q 298.17 119.80 296.97 120.10 Q 295.78 120.39 295.03 119.65 Q 294.29 118.91 293.99 117.14 Q 293.69 115.36 294.74 113.74 Q 295.78 112.11 298.17 110.63 Q 300.55 109.15 301.30 109.89 Z" />
    <path d="M 400.14 152.93 Q 400.14 152.93 400.73 153.23 Q 401.33 153.52 401.03 154.56 Q 400.73 155.59 399.54 157.37 Q 398.35 159.14 397.16 160.03 Q 395.96 160.92 394.77 160.92 Q 393.58 160.92 393.88 159.88 Q 394.17 158.85 395.96 156.77 Q 397.75 154.70 398.94 153.82 Z" />
    <path d="M 394.47 275.69 Q 394.47 275.69 395.37 275.69 Q 396.26 275.69 396.71 276.72 Q 397.16 277.76 397.16 279.83 Q 397.16 281.90 396.26 283.53 Q 395.37 285.15 393.58 286.34 Q 391.79 287.52 391.34 286.48 Q 390.89 285.45 391.79 282.19 Q 392.68 278.94 393.58 277.31 Z" />
    <path d="M 328.58 692.77 Q 328.58 692.77 331.56 693.36 Q 334.54 693.95 336.03 698.09 Q 337.52 702.23 337.52 709.92 Q 337.52 717.61 337.67 721.76 Q 337.82 725.90 338.12 726.49 Q 338.42 727.08 340.36 727.08 Q 342.29 727.08 345.87 726.49 Q 349.45 725.90 351.83 726.78 Q 354.22 727.67 355.41 730.04 Q 356.61 732.40 357.05 734.77 Q 357.50 737.14 357.20 739.50 Q 356.90 741.87 354.52 744.83 Q 352.13 747.79 347.66 751.34 Q 343.19 754.89 340.65 757.84 Q 338.12 760.80 337.52 763.17 Q 336.93 765.53 336.78 769.82 Q 336.63 774.11 336.93 780.32 Q 337.22 786.54 336.78 790.83 Q 336.33 795.11 335.14 797.48 Q 333.94 799.85 331.56 802.81 Q 329.17 805.76 325.60 809.31 Q 322.02 812.86 320.23 815.82 Q 318.44 818.78 318.44 821.15 Q 318.44 823.51 317.69 825.43 Q 316.95 827.36 315.46 828.84 Q 313.97 830.31 312.03 831.20 Q 310.09 832.09 307.71 832.39 Q 305.32 832.68 303.68 836.53 Q 302.04 840.37 301.15 847.77 Q 300.25 855.16 298.17 859.01 Q 296.08 862.85 292.80 863.15 Q 289.52 863.44 287.28 864.18 Q 285.05 864.92 283.85 866.11 Q 282.66 867.29 281.47 867.88 Q 280.28 868.47 279.08 868.47 Q 277.89 868.47 276.70 868.03 Q 275.50 867.59 274.31 866.70 Q 273.12 865.81 272.37 863.89 Q 271.63 861.97 271.33 859.01 Q 271.03 856.05 272.22 854.72 Q 273.42 853.39 276.10 853.68 Q 278.78 853.98 280.57 853.83 Q 282.36 853.68 283.26 853.09 Q 284.15 852.50 284.90 850.87 Q 285.64 849.25 286.24 846.58 Q 286.83 843.92 288.47 841.85 Q 290.11 839.78 292.80 838.30 Q 295.48 836.82 296.82 835.05 Q 298.17 833.27 298.17 831.20 Q 298.17 829.13 298.76 827.36 Q 299.36 825.58 300.55 824.10 Q 301.74 822.62 302.34 821.29 Q 302.94 819.96 302.94 818.78 Q 302.94 817.60 302.49 815.97 Q 302.04 814.34 301.15 812.27 Q 300.25 810.20 299.36 809.17 Q 298.46 808.13 297.57 808.13 Q 296.67 808.13 295.48 809.17 Q 294.29 810.20 292.80 812.27 Q 291.31 814.34 289.52 814.79 Q 287.73 815.23 285.64 814.05 Q 283.56 812.86 283.26 811.09 Q 282.96 809.31 284.45 806.95 Q 285.94 804.58 285.64 802.36 Q 285.34 800.14 283.26 798.07 Q 281.17 796.00 278.34 795.71 Q 275.50 795.41 271.93 796.89 Q 268.35 798.37 266.11 798.81 Q 263.88 799.26 262.98 798.66 Q 262.09 798.07 261.94 796.00 Q 261.79 793.93 262.39 790.38 Q 262.98 786.83 265.07 783.73 Q 267.16 780.62 270.73 777.96 Q 274.31 775.30 276.10 773.08 Q 277.89 770.86 277.89 769.08 Q 277.89 767.31 275.21 765.98 Q 272.52 764.65 267.16 763.76 Q 261.79 762.87 259.70 760.65 Q 257.61 758.44 258.81 754.89 Q 260.00 751.34 260.45 746.01 Q 260.89 740.69 260.60 733.59 Q 260.30 726.49 260.00 722.35 Q 259.70 718.21 259.40 717.02 Q 259.11 715.84 257.91 714.36 Q 256.72 712.88 254.63 711.11 Q 252.55 709.33 251.50 707.85 Q 250.46 706.37 250.46 705.19 Q 250.46 704.01 251.06 702.53 Q 251.65 701.05 252.84 699.27 Q 254.04 697.50 256.27 696.61 Q 258.51 695.73 261.79 695.73 Q 265.07 695.73 267.16 696.17 Q 269.24 696.61 270.14 697.50 Q 271.03 698.39 271.18 699.57 Q 271.33 700.75 270.73 702.23 Q 270.14 703.71 270.44 705.04 Q 270.73 706.37 271.93 707.56 Q 273.12 708.74 274.01 710.52 Q 274.91 712.29 275.50 714.66 Q 276.10 717.02 277.14 718.35 Q 278.19 719.69 279.68 719.98 Q 281.17 720.28 283.11 719.54 Q 285.05 718.80 287.43 717.02 Q 289.82 715.25 291.31 711.85 Q 292.80 708.44 293.39 703.42 Q 293.99 698.39 297.27 696.32 Q 300.55 694.25 306.51 695.13 Q 312.48 696.02 316.35 695.87 Q 320.23 695.73 322.02 694.54 Q 323.81 693.36 326.19 693.06 Z" />
    <path d="M 314.86 703.12 Q 314.86 703.12 313.67 703.42 Q 312.48 703.71 311.88 705.63 Q 311.28 707.56 311.28 711.11 Q 311.28 714.66 311.73 716.43 Q 312.18 718.21 313.07 718.21 Q 313.97 718.21 315.01 717.17 Q 316.06 716.14 317.25 714.06 Q 318.44 711.99 319.04 710.37 Q 319.63 708.74 319.63 707.56 Q 319.63 706.37 319.19 705.49 Q 318.74 704.60 317.84 704.01 Q 316.95 703.42 315.91 703.27 Z" />
    <path d="M 293.10 727.97 Q 293.10 727.97 291.61 728.26 Q 290.11 728.56 288.47 729.89 Q 286.83 731.22 285.05 733.59 Q 283.26 735.95 282.21 738.02 Q 281.17 740.10 280.87 741.87 Q 280.57 743.65 279.83 744.98 Q 279.08 746.31 277.89 747.19 Q 276.70 748.08 276.25 749.12 Q 275.80 750.15 276.10 751.34 Q 276.40 752.52 279.08 753.26 Q 281.77 754.00 286.83 754.29 Q 291.90 754.59 294.89 754.44 Q 297.87 754.29 298.76 753.70 Q 299.66 753.11 300.10 750.00 Q 300.55 746.90 300.55 741.28 Q 300.55 735.66 299.81 732.55 Q 299.06 729.45 297.57 728.85 Q 296.08 728.26 294.59 728.12 Z" />
    <path d="M 306.81 769.68 Q 306.81 769.68 305.92 770.27 Q 305.02 770.86 304.87 771.89 Q 304.72 772.93 305.32 774.41 Q 305.92 775.89 308.60 776.92 Q 311.28 777.96 316.06 778.55 Q 320.83 779.14 322.47 778.25 Q 324.11 777.37 322.61 775.00 Q 321.12 772.63 318.89 771.30 Q 316.65 769.97 313.67 769.68 Q 310.69 769.38 308.75 769.53 Z" />
    <path d="M 225.41 815.52 Q 225.41 815.52 226.61 815.82 Q 227.80 816.12 228.54 817.30 Q 229.29 818.48 229.59 820.55 Q 229.89 822.62 229.59 824.84 Q 229.29 827.06 228.39 829.43 Q 227.50 831.79 226.61 833.13 Q 225.71 834.46 224.82 834.75 Q 223.92 835.05 222.73 834.60 Q 221.54 834.16 220.05 832.98 Q 218.56 831.79 217.81 830.61 Q 217.06 829.43 217.06 828.24 Q 217.06 827.06 217.21 826.47 Q 217.36 825.88 217.66 825.88 Q 217.96 825.88 218.26 825.88 Q 218.56 825.88 218.85 825.88 Q 219.15 825.88 219.90 824.55 Q 220.64 823.22 221.83 820.55 Q 223.03 817.89 224.22 816.71 Z" />
    <path d="M 217.36 848.06 Q 217.36 848.06 218.85 848.95 Q 220.34 849.84 221.39 851.17 Q 222.43 852.50 223.03 854.27 Q 223.62 856.05 225.26 857.08 Q 226.90 858.12 229.59 858.42 Q 232.27 858.71 233.61 859.90 Q 234.95 861.08 234.95 863.15 Q 234.95 865.22 230.63 866.70 Q 226.31 868.18 217.66 869.06 Q 209.01 869.95 204.54 869.36 Q 200.07 868.77 199.77 866.70 Q 199.47 864.63 200.22 862.85 Q 200.96 861.08 202.75 859.60 Q 204.54 858.12 205.73 856.49 Q 206.93 854.87 207.52 853.09 Q 208.12 851.32 209.31 850.13 Q 210.50 848.95 212.29 848.36 Q 214.08 847.77 215.72 847.92 Z" />
    <path d="M 274.01 880.90 Q 274.01 880.90 276.10 881.49 Q 278.19 882.08 279.83 883.56 Q 281.47 885.04 282.66 887.40 Q 283.85 889.77 284.45 892.14 Q 285.05 894.50 285.05 896.87 Q 285.05 899.24 283.41 900.57 Q 281.77 901.90 278.49 902.19 Q 275.21 902.49 272.82 902.34 Q 270.44 902.19 268.94 901.60 Q 267.45 901.01 266.71 899.53 Q 265.96 898.05 265.96 895.69 Q 265.96 893.32 266.71 890.81 Q 267.45 888.29 268.94 885.63 Q 270.44 882.97 272.22 881.93 Z" />
    <path d="M 308.90 922.01 Q 308.90 922.01 311.28 922.31 Q 313.67 922.60 314.56 922.90 Q 315.46 923.20 314.86 923.49 Q 314.27 923.79 314.27 924.82 Q 314.27 925.86 314.86 927.63 Q 315.46 929.41 314.56 929.11 Q 313.67 928.82 311.28 926.45 Q 308.90 924.08 308.90 923.05 Z" />
    <path d="M 191.12 924.68 Q 191.12 924.68 192.61 925.27 Q 194.11 925.86 195.00 927.19 Q 195.89 928.52 196.19 930.59 Q 196.49 932.66 196.04 934.14 Q 195.60 935.62 194.40 936.51 Q 193.21 937.40 191.72 937.69 Q 190.23 937.99 188.44 937.69 Q 186.65 937.40 185.31 937.69 Q 183.97 937.99 183.07 938.87 Q 182.18 939.76 181.58 942.87 Q 180.99 945.97 180.69 951.30 Q 180.39 956.62 179.64 959.88 Q 178.90 963.13 177.71 964.31 Q 176.51 965.50 175.92 967.57 Q 175.32 969.64 175.32 972.60 Q 175.32 975.55 175.92 977.62 Q 176.51 979.69 177.71 980.88 Q 178.90 982.06 179.50 983.69 Q 180.09 985.31 180.09 987.39 Q 180.09 989.46 181.14 990.64 Q 182.18 991.82 184.27 992.12 Q 186.35 992.41 187.55 993.01 Q 188.74 993.60 189.04 994.48 Q 189.33 995.37 191.12 995.96 Q 192.91 996.56 196.19 996.85 Q 199.47 997.15 201.71 996.56 Q 203.94 995.96 205.14 994.48 Q 206.33 993.01 206.93 991.53 Q 207.52 990.05 207.52 988.57 Q 207.52 987.09 206.78 985.17 Q 206.03 983.24 204.54 980.88 Q 203.05 978.51 202.60 976.15 Q 202.16 973.78 202.75 971.41 Q 203.35 969.05 204.69 968.60 Q 206.03 968.16 208.12 969.64 Q 210.21 971.12 213.04 971.86 Q 215.87 972.60 219.45 972.60 Q 223.03 972.60 225.11 972.89 Q 227.20 973.19 227.80 973.78 Q 228.39 974.37 228.54 975.26 Q 228.69 976.15 228.39 977.33 Q 228.10 978.51 226.01 980.43 Q 223.92 982.36 220.05 985.02 Q 216.17 987.68 213.78 990.64 Q 211.40 993.60 210.50 996.85 Q 209.61 1000.10 210.36 1002.47 Q 211.10 1004.84 213.49 1006.32 Q 215.87 1007.80 219.45 1008.54 Q 223.03 1009.27 227.80 1009.27 Q 232.57 1009.27 235.25 1009.87 Q 237.94 1010.46 238.53 1011.64 Q 239.13 1012.82 240.02 1013.42 Q 240.92 1014.01 242.11 1014.01 Q 243.30 1014.01 246.14 1015.34 Q 248.97 1016.67 253.44 1019.33 Q 257.91 1021.99 261.04 1025.10 Q 264.17 1028.21 265.96 1031.76 Q 267.75 1035.31 270.14 1036.78 Q 272.52 1038.26 275.50 1037.67 Q 278.49 1037.08 280.57 1037.23 Q 282.66 1037.38 283.85 1038.26 Q 285.05 1039.15 286.09 1040.33 Q 287.13 1041.52 288.03 1043.00 Q 288.92 1044.48 289.22 1045.81 Q 289.52 1047.14 289.22 1048.32 Q 288.92 1049.50 290.26 1050.83 Q 291.61 1052.17 294.59 1053.65 Q 297.57 1055.12 299.51 1056.60 Q 301.44 1058.08 302.34 1059.56 Q 303.23 1061.04 303.83 1063.26 Q 304.43 1065.48 304.72 1068.44 Q 305.02 1071.39 306.36 1075.24 Q 307.71 1079.08 310.09 1083.82 Q 312.48 1088.55 314.27 1091.36 Q 316.06 1094.17 317.25 1095.06 Q 318.44 1095.94 319.33 1099.94 Q 320.23 1103.93 320.83 1111.03 Q 321.42 1118.13 322.32 1122.27 Q 323.21 1126.41 324.40 1127.60 Q 325.60 1128.78 326.34 1131.15 Q 327.09 1133.51 327.39 1137.06 Q 327.68 1140.61 328.43 1142.83 Q 329.17 1145.05 330.37 1145.94 Q 331.56 1146.82 332.31 1149.19 Q 333.05 1151.56 333.35 1155.40 Q 333.65 1159.25 334.24 1161.61 Q 334.84 1163.98 335.73 1164.87 Q 336.63 1165.75 337.52 1171.37 Q 338.42 1176.99 339.31 1187.35 Q 340.21 1197.70 341.40 1203.62 Q 342.59 1209.53 344.08 1211.01 Q 345.57 1212.49 346.32 1214.41 Q 347.06 1216.34 347.06 1218.70 Q 347.06 1221.07 347.81 1222.84 Q 348.56 1224.62 350.05 1225.80 Q 351.54 1226.98 352.43 1230.24 Q 353.33 1233.49 353.62 1238.82 Q 353.92 1244.14 353.77 1247.10 Q 353.62 1250.06 353.03 1250.65 Q 352.43 1251.24 352.13 1252.87 Q 351.83 1254.49 351.83 1257.16 Q 351.83 1259.82 352.88 1262.63 Q 353.92 1265.44 356.01 1268.40 Q 358.10 1271.35 359.14 1273.72 Q 360.18 1276.09 360.18 1277.86 Q 360.18 1279.64 359.59 1281.26 Q 358.99 1282.89 357.80 1284.37 Q 356.61 1285.85 356.16 1287.62 Q 355.71 1289.40 356.01 1291.47 Q 356.31 1293.54 355.71 1296.05 Q 355.11 1298.57 353.62 1301.53 Q 352.13 1304.48 351.39 1307.15 Q 350.64 1309.81 350.64 1312.18 Q 350.64 1314.54 350.34 1316.02 Q 350.05 1317.50 349.45 1318.09 Q 348.85 1318.68 347.81 1318.83 Q 346.77 1318.98 345.28 1318.68 Q 343.78 1318.39 342.14 1319.42 Q 340.50 1320.46 338.72 1322.82 Q 336.93 1325.19 335.14 1326.82 Q 333.35 1328.44 331.56 1329.33 Q 329.77 1330.22 329.77 1331.99 Q 329.77 1333.77 331.56 1336.43 Q 333.35 1339.09 334.24 1341.46 Q 335.14 1343.83 335.14 1345.90 Q 335.14 1347.97 334.09 1349.59 Q 333.05 1351.22 330.96 1352.40 Q 328.88 1353.59 327.98 1355.66 Q 327.09 1357.73 327.39 1360.69 Q 327.68 1363.65 326.19 1365.72 Q 324.70 1367.79 321.42 1368.97 Q 318.14 1370.15 315.76 1372.22 Q 313.37 1374.29 311.88 1377.25 Q 310.39 1380.21 308.30 1381.39 Q 306.22 1382.58 303.53 1381.98 Q 300.85 1381.39 298.46 1382.13 Q 296.08 1382.87 293.99 1384.94 Q 291.90 1387.01 288.33 1387.90 Q 284.75 1388.79 279.68 1388.49 Q 274.61 1388.20 271.63 1387.01 Q 268.65 1385.83 267.75 1383.76 Q 266.86 1381.69 264.62 1380.80 Q 262.39 1379.91 258.81 1380.21 Q 255.23 1380.51 253.29 1379.77 Q 251.35 1379.03 251.06 1377.25 Q 250.76 1375.48 249.12 1373.11 Q 247.48 1370.74 244.50 1367.79 Q 241.51 1364.83 239.13 1363.05 Q 236.74 1361.28 234.95 1360.69 Q 233.17 1360.10 233.02 1358.76 Q 232.87 1357.43 234.36 1355.36 Q 235.85 1353.29 237.79 1352.40 Q 239.72 1351.52 242.11 1351.81 Q 244.50 1352.11 246.28 1353.88 Q 248.07 1355.66 249.27 1358.91 Q 250.46 1362.17 251.95 1363.79 Q 253.44 1365.42 255.23 1365.42 Q 257.02 1365.42 258.21 1364.68 Q 259.40 1363.94 260.00 1362.46 Q 260.60 1360.98 261.34 1360.10 Q 262.09 1359.21 262.98 1358.91 Q 263.88 1358.62 264.92 1359.95 Q 265.96 1361.28 267.16 1364.24 Q 268.35 1367.19 269.84 1369.56 Q 271.33 1371.93 273.12 1373.70 Q 274.91 1375.48 276.40 1376.36 Q 277.89 1377.25 279.08 1377.25 Q 280.28 1377.25 281.17 1375.18 Q 282.06 1373.11 282.66 1368.97 Q 283.26 1364.83 282.96 1362.31 Q 282.66 1359.80 281.47 1358.91 Q 280.28 1358.02 280.87 1356.69 Q 281.47 1355.36 283.85 1353.59 Q 286.24 1351.81 287.58 1349.59 Q 288.92 1347.38 289.22 1344.71 Q 289.52 1342.05 290.71 1340.72 Q 291.90 1339.39 293.99 1339.39 Q 296.08 1339.39 297.27 1336.88 Q 298.46 1334.36 298.76 1329.33 Q 299.06 1324.30 298.91 1321.35 Q 298.76 1318.39 298.17 1317.50 Q 297.57 1316.61 296.82 1316.17 Q 296.08 1315.73 295.18 1315.73 Q 294.29 1315.73 293.84 1316.17 Q 293.39 1316.61 293.39 1317.50 Q 293.39 1318.39 292.80 1318.68 Q 292.20 1318.98 291.01 1318.68 Q 289.82 1318.39 289.37 1316.61 Q 288.92 1314.84 289.22 1311.58 Q 289.52 1308.33 288.77 1305.67 Q 288.03 1303.01 286.24 1300.94 Q 284.45 1298.86 283.41 1296.65 Q 282.36 1294.43 282.06 1292.06 Q 281.77 1289.69 280.13 1288.51 Q 278.49 1287.33 275.50 1287.33 Q 272.52 1287.33 269.09 1286.44 Q 265.67 1285.55 261.79 1283.78 Q 257.91 1282.00 257.17 1280.23 Q 256.42 1278.45 258.81 1276.68 Q 261.19 1274.90 262.39 1272.24 Q 263.58 1269.58 263.58 1266.03 Q 263.58 1262.48 261.79 1259.23 Q 260.00 1255.97 256.42 1253.02 Q 252.84 1250.06 250.61 1247.54 Q 248.37 1245.03 247.48 1242.96 Q 246.58 1240.89 244.35 1238.52 Q 242.11 1236.15 238.53 1233.49 Q 234.95 1230.83 232.87 1228.46 Q 230.78 1226.10 230.18 1224.03 Q 229.59 1221.96 228.54 1220.62 Q 227.50 1219.29 226.01 1218.70 Q 224.52 1218.11 221.24 1215.00 Q 217.96 1211.90 212.89 1206.28 Q 207.82 1200.66 204.69 1198.44 Q 201.56 1196.22 200.37 1197.40 Q 199.17 1198.59 198.58 1200.51 Q 197.98 1202.43 197.98 1205.10 Q 197.98 1207.76 198.58 1209.68 Q 199.17 1211.60 200.37 1212.79 Q 201.56 1213.97 202.90 1218.85 Q 204.24 1223.73 205.73 1232.31 Q 207.22 1240.89 208.72 1246.36 Q 210.21 1251.83 211.70 1254.20 Q 213.19 1256.56 214.08 1264.85 Q 214.98 1273.13 215.28 1287.33 Q 215.57 1301.53 217.51 1309.22 Q 219.45 1316.91 223.03 1318.09 Q 226.61 1319.27 228.54 1321.94 Q 230.48 1324.60 230.78 1328.74 Q 231.08 1332.88 230.18 1335.25 Q 229.29 1337.61 227.20 1338.21 Q 225.11 1338.80 222.73 1341.16 Q 220.34 1343.53 217.66 1347.67 Q 214.98 1351.81 207.52 1353.29 Q 200.07 1354.77 187.84 1353.59 Q 175.62 1352.40 168.76 1351.52 Q 161.90 1350.63 160.41 1350.04 Q 158.92 1349.45 157.58 1348.26 Q 156.24 1347.08 155.05 1345.31 Q 153.85 1343.53 152.36 1342.64 Q 150.87 1341.76 149.08 1341.76 Q 147.29 1341.76 146.40 1341.16 Q 145.50 1340.57 145.50 1339.39 Q 145.50 1338.21 146.85 1337.61 Q 148.19 1337.02 150.87 1337.02 Q 153.56 1337.02 155.79 1336.14 Q 158.03 1335.25 159.82 1333.47 Q 161.61 1331.70 162.50 1329.92 Q 163.39 1328.15 163.39 1326.37 Q 163.39 1324.60 165.93 1321.49 Q 168.46 1318.39 173.53 1313.95 Q 178.60 1309.51 180.69 1306.11 Q 182.78 1302.71 181.88 1300.34 Q 180.99 1297.98 179.64 1296.79 Q 178.30 1295.61 176.51 1295.61 Q 174.72 1295.61 172.94 1297.24 Q 171.15 1298.86 169.36 1302.12 Q 167.57 1305.37 165.63 1307.15 Q 163.69 1308.92 161.61 1309.22 Q 159.52 1309.51 158.03 1310.84 Q 156.54 1312.18 155.64 1314.54 Q 154.75 1316.91 152.96 1318.09 Q 151.17 1319.27 148.49 1319.27 Q 145.80 1319.27 144.31 1320.46 Q 142.82 1321.64 142.52 1324.01 Q 142.22 1326.37 140.44 1327.71 Q 138.65 1329.04 135.37 1329.33 Q 132.09 1329.63 130.00 1330.81 Q 127.91 1331.99 127.02 1334.06 Q 126.12 1336.14 123.89 1337.17 Q 121.65 1338.21 118.07 1338.21 Q 114.50 1338.21 111.96 1337.32 Q 109.43 1336.43 107.94 1334.66 Q 106.44 1332.88 105.70 1330.96 Q 104.95 1329.04 104.95 1326.97 Q 104.95 1324.90 105.40 1323.27 Q 105.85 1321.64 106.74 1320.46 Q 107.64 1319.27 112.11 1318.54 Q 116.58 1317.80 124.63 1317.50 Q 132.68 1317.20 137.16 1316.02 Q 141.63 1314.84 142.52 1312.77 Q 143.42 1310.70 145.80 1308.33 Q 148.19 1305.96 152.06 1303.30 Q 155.94 1300.64 157.88 1298.42 Q 159.82 1296.20 159.82 1294.43 Q 159.82 1292.65 160.26 1291.17 Q 160.71 1289.69 161.61 1288.51 Q 162.50 1287.33 162.95 1284.67 Q 163.39 1282.00 163.39 1277.86 Q 163.39 1273.72 163.99 1271.35 Q 164.59 1268.99 165.78 1268.40 Q 166.97 1267.81 168.46 1265.00 Q 169.95 1262.19 171.74 1257.16 Q 173.53 1252.13 174.87 1245.32 Q 176.22 1238.52 177.11 1229.94 Q 178.00 1221.36 178.30 1213.23 Q 178.60 1205.10 178.30 1197.40 Q 178.00 1189.71 179.05 1185.28 Q 180.09 1180.84 182.48 1179.66 Q 184.86 1178.47 186.20 1176.25 Q 187.55 1174.04 187.84 1170.78 Q 188.14 1167.53 186.95 1164.42 Q 185.76 1161.32 183.07 1158.36 Q 180.39 1155.40 178.60 1151.41 Q 176.81 1147.41 175.92 1142.39 Q 175.02 1137.36 173.83 1133.96 Q 172.64 1130.55 171.15 1128.78 Q 169.66 1127.00 168.91 1124.79 Q 168.17 1122.57 168.17 1119.90 Q 168.17 1117.24 167.42 1115.32 Q 166.67 1113.40 165.18 1112.21 Q 163.69 1111.03 163.10 1107.04 Q 162.50 1103.04 162.80 1096.24 Q 163.10 1089.44 161.61 1085.89 Q 160.11 1082.34 156.83 1082.04 Q 153.56 1081.75 151.47 1082.93 Q 149.38 1084.11 148.49 1086.77 Q 147.59 1089.44 146.40 1091.36 Q 145.21 1093.28 143.72 1094.47 Q 142.22 1095.65 139.39 1096.24 Q 136.56 1096.83 132.39 1096.83 Q 128.21 1096.83 125.23 1097.28 Q 122.25 1097.72 120.46 1098.61 Q 118.67 1099.49 113.30 1099.64 Q 107.94 1099.79 98.99 1099.20 Q 90.05 1098.61 85.28 1099.20 Q 80.50 1099.79 79.91 1101.56 Q 79.31 1103.34 78.57 1104.23 Q 77.82 1105.11 76.93 1105.11 Q 76.03 1105.11 75.44 1104.52 Q 74.84 1103.93 74.54 1102.75 Q 74.24 1101.56 74.39 1100.38 Q 74.54 1099.20 75.14 1098.02 Q 75.73 1096.83 77.08 1096.09 Q 78.42 1095.35 80.50 1095.06 Q 82.59 1094.76 83.64 1093.73 Q 84.68 1092.69 84.68 1090.92 Q 84.68 1089.14 85.42 1086.77 Q 86.17 1084.41 87.66 1081.45 Q 89.15 1078.49 91.24 1076.27 Q 93.33 1074.06 96.01 1072.58 Q 98.69 1071.10 100.63 1068.73 Q 102.57 1066.36 103.76 1063.11 Q 104.95 1059.86 106.74 1057.49 Q 108.53 1055.12 110.92 1053.65 Q 113.30 1052.17 115.24 1050.10 Q 117.18 1048.02 118.67 1045.36 Q 120.16 1042.70 122.55 1041.22 Q 124.93 1039.74 128.21 1039.45 Q 131.49 1039.15 133.73 1040.04 Q 135.96 1040.93 137.16 1043.00 Q 138.35 1045.07 139.69 1046.10 Q 141.03 1047.14 142.52 1047.14 Q 144.01 1047.14 145.21 1047.73 Q 146.40 1048.32 147.29 1049.50 Q 148.19 1050.69 150.28 1049.95 Q 152.36 1049.21 155.64 1046.55 Q 158.92 1043.88 160.71 1041.67 Q 162.50 1039.45 162.80 1037.67 Q 163.10 1035.90 163.99 1034.27 Q 164.89 1032.64 166.38 1031.16 Q 167.87 1029.69 168.46 1027.47 Q 169.06 1025.25 168.76 1022.29 Q 168.46 1019.33 166.08 1017.71 Q 163.69 1016.08 159.22 1015.78 Q 154.75 1015.49 152.06 1015.49 Q 149.38 1015.49 148.49 1015.78 Q 147.59 1016.08 147.00 1016.97 Q 146.40 1017.85 146.10 1019.33 Q 145.80 1020.81 144.76 1021.25 Q 143.72 1021.70 141.93 1021.11 Q 140.14 1020.52 139.39 1019.63 Q 138.65 1018.74 138.94 1017.56 Q 139.24 1016.37 139.99 1015.78 Q 140.73 1015.19 141.93 1015.19 Q 143.12 1015.19 143.86 1014.16 Q 144.61 1013.12 144.91 1011.05 Q 145.21 1008.98 145.80 1007.50 Q 146.40 1006.02 147.29 1005.13 Q 148.19 1004.25 151.77 1004.10 Q 155.34 1003.95 161.61 1004.54 Q 167.87 1005.13 172.04 1006.91 Q 176.22 1008.68 178.30 1011.64 Q 180.39 1014.60 183.22 1015.78 Q 186.06 1016.97 189.63 1016.37 Q 193.21 1015.78 195.00 1014.30 Q 196.79 1012.82 196.79 1010.46 Q 196.79 1008.09 195.89 1006.76 Q 195.00 1005.43 193.21 1005.13 Q 191.42 1004.84 190.38 1003.65 Q 189.33 1002.47 189.04 1000.40 Q 188.74 998.33 187.55 997.15 Q 186.35 995.96 184.27 995.67 Q 182.18 995.37 180.99 994.78 Q 179.79 994.19 179.50 993.30 Q 179.20 992.41 178.00 991.67 Q 176.81 990.94 174.72 990.34 Q 172.64 989.75 170.55 988.42 Q 168.46 987.09 166.38 985.02 Q 164.29 982.95 162.95 981.03 Q 161.61 979.10 161.01 977.33 Q 160.41 975.55 159.22 974.07 Q 158.03 972.60 156.24 971.41 Q 154.45 970.23 153.70 968.16 Q 152.96 966.09 153.26 963.13 Q 153.56 960.17 154.75 957.95 Q 155.94 955.73 158.03 954.26 Q 160.11 952.78 161.31 951.30 Q 162.50 949.82 162.80 948.34 Q 163.10 946.86 164.29 944.94 Q 165.48 943.02 167.57 940.65 Q 169.66 938.28 172.49 936.21 Q 175.32 934.14 178.90 932.37 Q 182.48 930.59 184.71 929.11 Q 186.95 927.63 187.84 926.45 Q 188.74 925.27 189.93 924.97 Z" />
    <path d="M 238.23 957.81 Q 238.23 957.81 239.13 958.40 Q 240.02 958.99 241.36 959.14 Q 242.71 959.28 244.50 958.99 Q 246.28 958.69 247.33 958.84 Q 248.37 958.99 248.67 959.58 Q 248.97 960.17 247.63 961.35 Q 246.28 962.54 243.30 964.31 Q 240.32 966.09 238.83 965.64 Q 237.34 965.20 237.34 962.54 Q 237.34 959.88 237.79 958.84 Z" />
    <path d="M 292.20 957.81 Q 292.20 957.81 294.59 958.40 Q 296.97 958.99 298.31 960.32 Q 299.66 961.65 299.95 963.72 Q 300.25 965.79 300.10 967.27 Q 299.95 968.75 299.36 969.64 Q 298.76 970.52 297.27 970.97 Q 295.78 971.41 293.39 971.41 Q 291.01 971.41 289.67 969.93 Q 288.33 968.45 288.03 965.50 Q 287.73 962.54 287.88 960.76 Q 288.03 958.99 288.62 958.40 Q 289.22 957.81 290.71 957.81 Z" />
    <path d="M 117.18 965.50 Q 117.18 965.50 118.67 966.68 Q 120.16 967.86 121.06 970.38 Q 121.95 972.89 122.25 976.74 Q 122.55 980.58 122.40 982.65 Q 122.25 984.72 121.65 985.02 Q 121.06 985.31 120.46 984.72 Q 119.86 984.13 119.27 982.65 Q 118.67 981.17 117.63 979.99 Q 116.58 978.81 115.09 977.92 Q 113.60 977.03 113.45 975.70 Q 113.30 974.37 114.50 972.60 Q 115.69 970.82 116.14 969.34 Q 116.58 967.86 116.28 966.68 Q 115.99 965.50 116.58 965.50 Z" />
    <path d="M 255.83 972.60 Q 255.83 972.60 258.81 973.78 Q 261.79 974.96 263.73 976.44 Q 265.67 977.92 266.56 979.69 Q 267.45 981.47 269.24 982.36 Q 271.03 983.24 273.72 983.24 Q 276.40 983.24 278.04 983.54 Q 279.68 983.84 280.28 984.43 Q 280.87 985.02 281.17 986.35 Q 281.47 987.68 281.47 989.75 Q 281.47 991.82 280.57 993.30 Q 279.68 994.78 277.89 995.67 Q 276.10 996.56 275.06 997.89 Q 274.01 999.22 273.72 1000.99 Q 273.42 1002.77 272.82 1003.51 Q 272.22 1004.25 271.33 1003.95 Q 270.44 1003.65 269.39 1001.58 Q 268.35 999.51 267.16 995.67 Q 265.96 991.82 264.92 989.90 Q 263.88 987.98 262.98 987.98 Q 262.09 987.98 260.45 986.65 Q 258.81 985.31 256.42 982.65 Q 254.04 979.99 252.99 977.92 Q 251.95 975.85 252.25 974.37 Q 252.55 972.89 254.19 972.74 Z" />
    <path d="M 326.79 1008.68 Q 326.79 1008.68 329.17 1009.27 Q 331.56 1009.87 332.75 1011.35 Q 333.94 1012.82 333.94 1015.19 Q 333.94 1017.56 333.50 1018.74 Q 333.05 1019.92 332.16 1019.92 Q 331.26 1019.92 330.52 1019.04 Q 329.77 1018.15 329.17 1016.37 Q 328.58 1014.60 327.68 1013.42 Q 326.79 1012.23 325.60 1011.64 Q 324.40 1011.05 323.96 1010.46 Q 323.51 1009.87 323.81 1009.27 Q 324.11 1008.68 325.45 1008.68 Z" />
    <path d="M 217.36 1021.40 Q 217.36 1021.40 216.47 1021.70 Q 215.57 1021.99 214.98 1022.88 Q 214.38 1023.77 214.08 1025.25 Q 213.78 1026.73 214.08 1028.06 Q 214.38 1029.39 215.28 1030.57 Q 216.17 1031.76 217.21 1032.35 Q 218.26 1032.94 219.45 1032.94 Q 220.64 1032.94 221.54 1032.20 Q 222.43 1031.46 223.03 1029.98 Q 223.62 1028.50 223.18 1027.02 Q 222.73 1025.54 221.24 1024.06 Q 219.75 1022.59 218.56 1021.99 Z" />
    <path d="M 190.53 1027.32 Q 190.53 1027.32 189.04 1028.80 Q 187.55 1030.28 186.80 1031.76 Q 186.06 1033.23 186.06 1034.71 Q 186.06 1036.19 186.65 1037.23 Q 187.25 1038.26 188.44 1038.85 Q 189.63 1039.45 190.83 1039.59 Q 192.02 1039.74 193.21 1039.45 Q 194.40 1039.15 195.15 1038.56 Q 195.89 1037.97 196.19 1037.08 Q 196.49 1036.19 196.64 1035.01 Q 196.79 1033.83 196.79 1032.35 Q 196.79 1030.87 196.19 1029.69 Q 195.60 1028.50 194.40 1027.61 Q 193.21 1026.73 191.87 1027.02 Z" />
    <path d="M 246.88 1035.90 Q 246.88 1035.90 245.69 1036.49 Q 244.50 1037.08 243.75 1038.12 Q 243.00 1039.15 242.71 1040.63 Q 242.41 1042.11 243.00 1043.74 Q 243.60 1045.36 245.09 1047.14 Q 246.58 1048.91 247.92 1049.80 Q 249.27 1050.69 250.46 1050.69 Q 251.65 1050.69 252.84 1050.10 Q 254.04 1049.50 255.23 1048.32 Q 256.42 1047.14 257.02 1045.95 Q 257.61 1044.77 257.61 1043.59 Q 257.61 1042.40 257.17 1041.22 Q 256.72 1040.04 255.83 1038.85 Q 254.93 1037.67 253.74 1036.93 Q 252.55 1036.19 251.06 1035.90 Q 249.56 1035.60 248.22 1035.75 Z" />
    <path d="M 172.34 1045.07 Q 172.34 1045.07 171.74 1046.55 Q 171.15 1048.02 171.59 1049.06 Q 172.04 1050.10 173.53 1050.69 Q 175.02 1051.28 175.92 1050.69 Q 176.81 1050.10 177.11 1048.32 Q 177.41 1046.55 176.96 1045.51 Q 176.51 1044.48 175.32 1044.18 Q 174.13 1043.88 173.23 1044.48 Z" />
    <path d="M 200.67 1044.48 Q 200.67 1044.48 199.77 1045.36 Q 198.88 1046.25 198.73 1047.88 Q 198.58 1049.50 199.17 1051.87 Q 199.77 1054.24 201.71 1055.42 Q 203.65 1056.60 206.93 1056.60 Q 210.21 1056.60 212.14 1056.31 Q 214.08 1056.01 214.68 1055.42 Q 215.28 1054.83 215.28 1053.35 Q 215.28 1051.87 214.68 1049.50 Q 214.08 1047.14 212.29 1045.81 Q 210.50 1044.48 207.52 1044.18 Q 204.54 1043.88 202.60 1044.18 Z" />
    <path d="M 415.64 1046.55 Q 415.64 1046.55 416.24 1047.14 Q 416.83 1047.73 416.98 1048.62 Q 417.13 1049.50 416.83 1050.69 Q 416.54 1051.87 415.64 1052.76 Q 414.75 1053.65 413.26 1054.24 Q 411.77 1054.83 411.62 1053.94 Q 411.47 1053.05 412.66 1050.69 Q 413.85 1048.32 414.75 1047.43 Z" />
    <path d="M 225.71 1059.56 Q 225.71 1059.56 224.82 1060.15 Q 223.92 1060.74 223.62 1062.08 Q 223.33 1063.41 223.62 1065.48 Q 223.92 1067.55 225.86 1067.99 Q 227.80 1068.44 231.38 1067.25 Q 234.95 1066.07 236.59 1064.74 Q 238.23 1063.41 237.94 1061.93 Q 237.64 1060.45 236.15 1059.71 Q 234.66 1058.97 231.97 1058.97 Q 229.29 1058.97 227.50 1059.27 Z" />
    <path d="M 269.54 1059.56 Q 269.54 1059.56 268.35 1060.15 Q 267.16 1060.74 266.71 1063.85 Q 266.26 1066.96 266.56 1072.58 Q 266.86 1078.20 267.60 1082.78 Q 268.35 1087.37 269.54 1090.92 Q 270.73 1094.47 272.37 1096.39 Q 274.01 1098.31 276.10 1098.61 Q 278.19 1098.90 279.53 1098.75 Q 280.87 1098.61 281.47 1098.02 Q 282.06 1097.42 282.36 1095.50 Q 282.66 1093.58 282.66 1090.32 Q 282.66 1087.07 282.21 1084.56 Q 281.77 1082.04 280.87 1080.27 Q 279.98 1078.49 279.68 1075.83 Q 279.38 1073.17 279.68 1069.62 Q 279.98 1066.07 278.93 1063.85 Q 277.89 1061.63 275.50 1060.74 Q 273.12 1059.86 271.33 1059.71 Z" />
    <path d="M 184.27 1061.63 Q 184.27 1061.63 183.67 1061.93 Q 183.07 1062.22 182.92 1063.70 Q 182.78 1065.18 183.07 1067.84 Q 183.37 1070.51 184.86 1072.13 Q 186.35 1073.76 189.04 1074.35 Q 191.72 1074.94 193.36 1074.79 Q 195.00 1074.65 195.60 1073.76 Q 196.19 1072.87 196.34 1071.39 Q 196.49 1069.91 196.19 1067.84 Q 195.89 1065.77 194.40 1064.44 Q 192.91 1063.11 190.23 1062.52 Q 187.55 1061.93 185.91 1061.78 Z" />
    <path d="M 213.49 1077.01 Q 213.49 1077.01 212.29 1077.31 Q 211.10 1077.60 210.36 1078.34 Q 209.61 1079.08 209.31 1080.27 Q 209.01 1081.45 210.36 1082.34 Q 211.70 1083.23 214.68 1083.82 Q 217.66 1084.41 219.30 1083.82 Q 220.94 1083.23 221.24 1081.45 Q 221.54 1079.68 220.79 1078.64 Q 220.05 1077.60 218.26 1077.31 Q 216.47 1077.01 214.98 1077.01 Z" />
    <path d="M 172.04 1080.86 Q 172.04 1080.86 171.15 1082.63 Q 170.25 1084.41 170.10 1085.74 Q 169.95 1087.07 170.55 1087.96 Q 171.15 1088.85 172.04 1089.29 Q 172.94 1089.73 174.13 1089.73 Q 175.32 1089.73 176.07 1088.55 Q 176.81 1087.37 177.11 1085.00 Q 177.41 1082.63 176.96 1081.30 Q 176.51 1079.97 175.32 1079.68 Q 174.13 1079.38 173.08 1080.12 Z" />
    <path d="M 240.62 1085.59 Q 240.62 1085.59 237.94 1086.18 Q 235.25 1086.77 233.91 1087.81 Q 232.57 1088.85 232.57 1090.32 Q 232.57 1091.80 234.36 1092.69 Q 236.15 1093.58 239.72 1093.87 Q 243.30 1094.17 245.24 1093.58 Q 247.18 1092.99 247.48 1091.51 Q 247.78 1090.03 247.33 1088.85 Q 246.88 1087.66 245.69 1086.77 Q 244.50 1085.89 242.56 1085.74 Z" />
    <path d="M 192.32 1092.69 Q 192.32 1092.69 191.42 1093.28 Q 190.53 1093.87 190.23 1094.76 Q 189.93 1095.65 190.23 1096.83 Q 190.53 1098.02 192.02 1098.46 Q 193.51 1098.90 196.19 1098.61 Q 198.88 1098.31 200.07 1097.57 Q 201.26 1096.83 200.96 1095.65 Q 200.67 1094.47 199.62 1093.73 Q 198.58 1092.99 196.79 1092.69 Q 195.00 1092.40 193.66 1092.54 Z" />
    <path d="M 218.26 1100.09 Q 218.26 1100.09 217.06 1100.97 Q 215.87 1101.86 215.42 1103.04 Q 214.98 1104.23 215.28 1105.71 Q 215.57 1107.19 217.06 1108.07 Q 218.56 1108.96 221.24 1109.26 Q 223.92 1109.55 225.86 1109.26 Q 227.80 1108.96 228.99 1108.07 Q 230.18 1107.19 230.33 1105.85 Q 230.48 1104.52 229.59 1102.75 Q 228.69 1100.97 227.20 1100.09 Q 225.71 1099.20 223.62 1099.20 Q 221.54 1099.20 219.90 1099.64 Z" />
    <path d="M 247.18 1108.96 Q 247.18 1108.96 245.09 1110.44 Q 243.00 1111.92 242.26 1113.40 Q 241.51 1114.88 242.11 1116.35 Q 242.71 1117.83 244.50 1118.28 Q 246.28 1118.72 249.27 1118.13 Q 252.25 1117.54 253.59 1116.21 Q 254.93 1114.88 254.63 1112.81 Q 254.33 1110.73 253.59 1109.55 Q 252.84 1108.37 251.65 1108.07 Q 250.46 1107.78 248.82 1108.37 Z" />
    <path d="M 199.17 1111.62 Q 199.17 1111.62 197.98 1112.21 Q 196.79 1112.81 196.19 1113.54 Q 195.60 1114.28 195.60 1115.17 Q 195.60 1116.06 196.49 1116.80 Q 197.39 1117.54 199.17 1118.13 Q 200.96 1118.72 202.16 1118.13 Q 203.35 1117.54 203.94 1115.76 Q 204.54 1113.99 204.24 1112.95 Q 203.94 1111.92 202.75 1111.62 Q 201.56 1111.33 200.37 1111.47 Z" />
    <path d="M 278.19 1116.06 Q 278.19 1116.06 277.29 1116.35 Q 276.40 1116.65 276.10 1118.13 Q 275.80 1119.61 276.10 1122.27 Q 276.40 1124.93 277.29 1125.97 Q 278.19 1127.00 279.68 1126.41 Q 281.17 1125.82 281.92 1124.64 Q 282.66 1123.45 282.66 1121.68 Q 282.66 1119.90 282.21 1118.72 Q 281.77 1117.54 280.87 1116.95 Q 279.98 1116.35 279.08 1116.21 Z" />
    <path d="M 225.71 1121.38 Q 225.71 1121.38 224.82 1122.27 Q 223.92 1123.16 223.47 1124.34 Q 223.03 1125.52 223.03 1127.00 Q 223.03 1128.48 223.77 1129.52 Q 224.52 1130.55 226.01 1131.15 Q 227.50 1131.74 228.99 1130.85 Q 230.48 1129.96 231.97 1127.60 Q 233.46 1125.23 233.17 1123.75 Q 232.87 1122.27 230.78 1121.68 Q 228.69 1121.09 227.20 1121.24 Z" />
    <path d="M 256.12 1129.37 Q 256.12 1129.37 254.63 1129.96 Q 253.14 1130.55 252.40 1131.44 Q 251.65 1132.33 251.65 1133.51 Q 251.65 1134.69 253.14 1135.43 Q 254.63 1136.17 257.61 1136.47 Q 260.60 1136.77 262.24 1136.17 Q 263.88 1135.58 264.17 1134.10 Q 264.47 1132.62 263.73 1131.59 Q 262.98 1130.55 261.19 1129.96 Q 259.40 1129.37 257.76 1129.37 Z" />
    <path d="M 200.96 1136.17 Q 200.96 1136.17 200.37 1137.65 Q 199.77 1139.13 200.22 1140.02 Q 200.67 1140.91 202.16 1141.20 Q 203.65 1141.50 204.54 1140.91 Q 205.44 1140.31 205.73 1138.84 Q 206.03 1137.36 205.58 1136.47 Q 205.14 1135.58 203.94 1135.29 Q 202.75 1134.99 201.86 1135.58 Z" />
    <path d="M 278.19 1138.84 Q 278.19 1138.84 277.29 1139.43 Q 276.40 1140.02 276.10 1141.50 Q 275.80 1142.98 276.10 1145.34 Q 276.40 1147.71 277.29 1148.60 Q 278.19 1149.48 279.68 1148.89 Q 281.17 1148.30 281.92 1147.12 Q 282.66 1145.94 282.66 1144.16 Q 282.66 1142.39 282.21 1141.20 Q 281.77 1140.02 280.87 1139.43 Q 279.98 1138.84 279.08 1138.84 Z" />
    <path d="M 235.25 1140.31 Q 235.25 1140.31 234.36 1141.20 Q 233.46 1142.09 233.17 1142.98 Q 232.87 1143.86 233.17 1144.75 Q 233.46 1145.64 234.36 1145.94 Q 235.25 1146.23 236.74 1145.94 Q 238.23 1145.64 238.98 1144.90 Q 239.72 1144.16 239.72 1142.98 Q 239.72 1141.79 239.28 1141.05 Q 238.83 1140.31 237.94 1140.02 Q 237.04 1139.72 236.15 1140.02 Z" />
    <path d="M 216.17 1148.01 Q 216.17 1148.01 215.28 1148.30 Q 214.38 1148.60 213.93 1149.34 Q 213.49 1150.08 213.49 1151.26 Q 213.49 1152.44 214.23 1153.33 Q 214.98 1154.22 216.47 1154.81 Q 217.96 1155.40 218.85 1154.81 Q 219.75 1154.22 220.05 1152.44 Q 220.34 1150.67 220.05 1149.63 Q 219.75 1148.60 218.85 1148.30 Q 217.96 1148.01 217.06 1148.01 Z" />
    <path d="M 305.02 1149.78 Q 305.02 1149.78 303.53 1151.85 Q 302.04 1153.92 301.15 1157.03 Q 300.25 1160.13 299.95 1164.27 Q 299.66 1168.42 298.91 1170.78 Q 298.17 1173.15 296.97 1173.74 Q 295.78 1174.33 295.18 1175.96 Q 294.59 1177.59 294.59 1180.25 Q 294.59 1182.91 294.89 1184.54 Q 295.18 1186.16 295.78 1186.76 Q 296.38 1187.35 297.27 1187.50 Q 298.17 1187.64 299.36 1187.35 Q 300.55 1187.05 302.49 1185.57 Q 304.43 1184.09 307.11 1181.43 Q 309.79 1178.77 311.14 1174.48 Q 312.48 1170.19 312.48 1164.27 Q 312.48 1158.36 311.73 1154.81 Q 310.99 1151.26 309.50 1150.08 Q 308.00 1148.89 306.51 1149.34 Z" />
    <path d="M 259.11 1154.22 Q 259.11 1154.22 258.21 1154.81 Q 257.32 1155.40 257.02 1156.29 Q 256.72 1157.18 257.02 1158.36 Q 257.32 1159.54 258.51 1160.13 Q 259.70 1160.73 261.79 1160.73 Q 263.88 1160.73 265.07 1159.99 Q 266.26 1159.25 266.56 1157.77 Q 266.86 1156.29 266.11 1155.40 Q 265.37 1154.51 263.58 1154.22 Q 261.79 1153.92 260.45 1154.07 Z" />
    <path d="M 233.17 1160.73 Q 233.17 1160.73 231.38 1161.91 Q 229.59 1163.09 228.69 1164.27 Q 227.80 1165.46 227.80 1166.64 Q 227.80 1167.82 228.10 1168.71 Q 228.39 1169.60 228.99 1170.19 Q 229.59 1170.78 231.53 1170.93 Q 233.46 1171.08 236.74 1170.78 Q 240.02 1170.49 241.66 1169.60 Q 243.30 1168.71 243.30 1167.23 Q 243.30 1165.75 242.26 1164.42 Q 241.22 1163.09 239.13 1161.91 Q 237.04 1160.73 235.10 1160.73 Z" />
    <path d="M 283.85 1164.27 Q 283.85 1164.27 282.66 1165.46 Q 281.47 1166.64 282.21 1167.53 Q 282.96 1168.42 285.64 1169.01 Q 288.33 1169.60 289.67 1169.16 Q 291.01 1168.71 291.01 1167.23 Q 291.01 1165.75 290.26 1164.87 Q 289.52 1163.98 288.03 1163.68 Q 286.54 1163.39 285.19 1163.83 Z" />
    <path d="M 432.64 1164.87 Q 432.64 1164.87 434.72 1165.46 Q 436.81 1166.05 437.71 1167.23 Q 438.60 1168.42 438.30 1170.19 Q 438.00 1171.97 436.81 1172.26 Q 435.62 1172.56 433.53 1171.37 Q 431.44 1170.19 430.55 1169.01 Q 429.66 1167.82 429.95 1166.64 Q 430.25 1165.46 431.44 1165.16 Z" />
    <path d="M 259.40 1174.04 Q 259.40 1174.04 258.81 1175.52 Q 258.21 1176.99 258.96 1177.88 Q 259.70 1178.77 261.79 1179.06 Q 263.88 1179.36 265.07 1178.77 Q 266.26 1178.18 266.56 1176.70 Q 266.86 1175.22 266.11 1174.33 Q 265.37 1173.44 263.58 1173.15 Q 261.79 1172.85 260.60 1173.44 Z" />
    <path d="M 242.71 1188.53 Q 242.71 1188.53 242.11 1190.31 Q 241.51 1192.08 242.11 1193.12 Q 242.71 1194.15 244.50 1194.45 Q 246.28 1194.74 247.18 1193.85 Q 248.07 1192.97 248.07 1190.90 Q 248.07 1188.83 247.48 1187.79 Q 246.88 1186.76 245.69 1186.76 Q 244.50 1186.76 243.60 1187.64 Z" />
    <path d="M 267.45 1198.00 Q 267.45 1198.00 266.56 1198.59 Q 265.67 1199.18 265.22 1200.21 Q 264.77 1201.25 264.77 1202.73 Q 264.77 1204.21 265.67 1205.10 Q 266.56 1205.98 268.35 1206.28 Q 270.14 1206.57 271.33 1205.83 Q 272.52 1205.10 273.12 1203.32 Q 273.72 1201.55 273.27 1200.36 Q 272.82 1199.18 271.33 1198.59 Q 269.84 1198.00 268.65 1198.00 Z" />
    <path d="M 244.79 1212.19 Q 244.79 1212.19 243.90 1212.79 Q 243.00 1213.38 242.56 1214.56 Q 242.11 1215.74 242.11 1217.52 Q 242.11 1219.29 243.45 1220.33 Q 244.79 1221.36 247.48 1221.66 Q 250.16 1221.96 251.65 1220.92 Q 253.14 1219.89 253.44 1217.52 Q 253.74 1215.15 252.84 1213.82 Q 251.95 1212.49 249.86 1212.19 Q 247.78 1211.90 246.28 1212.05 Z" />
    <path d="M 320.23 1221.07 Q 320.23 1221.07 319.63 1222.25 Q 319.04 1223.44 319.48 1224.32 Q 319.93 1225.21 321.42 1225.80 Q 322.91 1226.39 323.81 1225.95 Q 324.70 1225.51 325.00 1224.03 Q 325.30 1222.55 324.85 1221.66 Q 324.40 1220.77 323.21 1220.48 Q 322.02 1220.18 321.12 1220.62 Z" />
    <path d="M 269.84 1223.73 Q 269.84 1223.73 268.94 1224.03 Q 268.05 1224.32 267.45 1225.06 Q 266.86 1225.80 266.56 1226.98 Q 266.26 1228.17 267.31 1229.06 Q 268.35 1229.94 270.73 1230.53 Q 273.12 1231.13 274.46 1230.53 Q 275.80 1229.94 276.10 1228.17 Q 276.40 1226.39 275.80 1225.36 Q 275.21 1224.32 273.72 1224.03 Q 272.22 1223.73 271.03 1223.73 Z" />
    <path d="M 295.18 1224.91 Q 295.18 1224.91 294.59 1225.21 Q 293.99 1225.51 293.84 1228.32 Q 293.69 1231.13 293.99 1236.45 Q 294.29 1241.77 295.03 1244.88 Q 295.78 1247.99 296.97 1248.87 Q 298.17 1249.76 299.36 1251.83 Q 300.55 1253.90 301.74 1257.16 Q 302.94 1260.41 304.13 1262.19 Q 305.32 1263.96 306.51 1264.26 Q 307.71 1264.55 308.60 1264.40 Q 309.50 1264.26 310.09 1263.66 Q 310.69 1263.07 310.99 1260.85 Q 311.28 1258.64 311.28 1254.79 Q 311.28 1250.94 310.69 1248.43 Q 310.09 1245.92 308.90 1244.73 Q 307.71 1243.55 306.96 1241.48 Q 306.22 1239.41 305.92 1236.45 Q 305.62 1233.49 304.87 1231.27 Q 304.13 1229.06 302.94 1227.58 Q 301.74 1226.10 300.55 1225.36 Q 299.36 1224.62 298.17 1224.62 Q 296.97 1224.62 296.08 1224.77 Z" />
    <path d="M 418.33 1234.08 Q 418.33 1234.08 419.22 1234.08 Q 420.11 1234.08 420.56 1236.60 Q 421.01 1239.11 421.01 1244.14 Q 421.01 1249.17 420.56 1251.98 Q 420.11 1254.79 419.22 1255.38 Q 418.33 1255.97 418.33 1257.30 Q 418.33 1258.64 419.22 1260.71 Q 420.11 1262.78 420.56 1265.14 Q 421.01 1267.51 421.01 1270.17 Q 421.01 1272.83 420.41 1275.35 Q 419.82 1277.86 418.62 1280.23 Q 417.43 1282.60 416.24 1283.93 Q 415.05 1285.26 413.85 1285.55 Q 412.66 1285.85 411.77 1285.70 Q 410.87 1285.55 410.28 1284.96 Q 409.68 1284.37 409.38 1282.60 Q 409.08 1280.82 409.08 1277.86 Q 409.08 1274.90 409.53 1273.13 Q 409.98 1271.35 410.87 1270.76 Q 411.77 1270.17 412.21 1268.40 Q 412.66 1266.62 412.66 1263.66 Q 412.66 1260.71 413.26 1258.93 Q 413.85 1257.16 415.05 1256.56 Q 416.24 1255.97 416.98 1255.09 Q 417.73 1254.20 418.03 1253.02 Q 418.33 1251.83 418.33 1249.17 Q 418.33 1246.51 418.03 1242.37 Q 417.73 1238.23 418.03 1236.15 Z" />
    <path d="M 323.81 1243.85 Q 323.81 1243.85 323.21 1245.32 Q 322.61 1246.80 322.91 1247.84 Q 323.21 1248.87 324.40 1249.47 Q 325.60 1250.06 326.64 1249.61 Q 327.68 1249.17 328.58 1247.69 Q 329.47 1246.21 329.17 1245.18 Q 328.88 1244.14 327.39 1243.55 Q 325.89 1242.96 324.85 1243.40 Z" />
    <path d="M 277.29 1246.21 Q 277.29 1246.21 276.70 1248.87 Q 276.10 1251.54 276.40 1253.02 Q 276.70 1254.49 277.89 1254.79 Q 279.08 1255.09 279.98 1253.90 Q 280.87 1252.72 281.47 1250.06 Q 282.06 1247.40 281.77 1245.92 Q 281.47 1244.44 280.28 1244.14 Q 279.08 1243.85 278.19 1245.03 Z" />
    <path d="M 282.96 1267.81 Q 282.96 1267.81 282.06 1268.40 Q 281.17 1268.99 280.87 1269.73 Q 280.57 1270.47 280.87 1271.35 Q 281.17 1272.24 282.21 1272.69 Q 283.26 1273.13 285.05 1273.13 Q 286.83 1273.13 287.73 1272.69 Q 288.62 1272.24 288.62 1271.35 Q 288.62 1270.47 288.03 1269.73 Q 287.43 1268.99 286.24 1268.40 Q 285.05 1267.81 284.00 1267.81 Z" />
    <path d="M 325.89 1267.51 Q 325.89 1267.51 325.00 1267.81 Q 324.11 1268.10 323.66 1268.99 Q 323.21 1269.88 323.21 1271.35 Q 323.21 1272.83 324.40 1273.72 Q 325.60 1274.61 327.98 1274.90 Q 330.37 1275.20 331.71 1274.46 Q 333.05 1273.72 333.35 1271.95 Q 333.65 1270.17 332.90 1269.14 Q 332.16 1268.10 330.37 1267.81 Q 328.58 1267.51 327.24 1267.51 Z" />
    <path d="M 181.88 1268.69 Q 181.88 1268.69 181.28 1268.99 Q 180.69 1269.28 180.39 1271.06 Q 180.09 1272.83 180.09 1276.09 Q 180.09 1279.34 180.84 1281.12 Q 181.58 1282.89 183.07 1283.19 Q 184.56 1283.48 185.46 1281.86 Q 186.35 1280.23 186.65 1276.68 Q 186.95 1273.13 186.50 1271.21 Q 186.06 1269.28 184.86 1268.99 Q 183.67 1268.69 182.78 1268.69 Z" />
    <path d="M 309.50 1284.67 Q 309.50 1284.67 307.71 1286.74 Q 305.92 1288.81 306.36 1290.29 Q 306.81 1291.77 309.50 1292.65 Q 312.18 1293.54 313.82 1292.65 Q 315.46 1291.77 316.06 1289.10 Q 316.65 1286.44 316.20 1284.96 Q 315.76 1283.48 314.27 1283.19 Q 312.78 1282.89 311.14 1283.78 Z" />
    <path d="M 234.06 1282.60 Q 234.06 1282.60 236.74 1282.60 Q 239.43 1282.60 240.32 1283.63 Q 241.22 1284.67 240.32 1286.74 Q 239.43 1288.81 237.04 1289.99 Q 234.66 1291.17 230.78 1291.47 Q 226.90 1291.77 224.52 1291.62 Q 222.13 1291.47 221.24 1290.88 Q 220.34 1290.29 219.75 1289.25 Q 219.15 1288.22 218.85 1286.74 Q 218.56 1285.26 220.05 1284.37 Q 221.54 1283.48 224.82 1283.19 Q 228.10 1282.89 231.08 1282.74 Z" />
    <path d="M 336.33 1292.95 Q 336.33 1292.95 333.94 1293.84 Q 331.56 1294.72 330.22 1296.20 Q 328.88 1297.68 328.58 1299.75 Q 328.28 1301.82 329.03 1303.45 Q 329.77 1305.08 331.56 1306.26 Q 333.35 1307.44 335.44 1308.03 Q 337.52 1308.63 339.91 1308.63 Q 342.29 1308.63 343.49 1306.70 Q 344.68 1304.78 344.68 1300.94 Q 344.68 1297.09 343.93 1295.02 Q 343.19 1292.95 341.70 1292.65 Q 340.21 1292.36 338.27 1292.65 Z" />
    <path d="M 186.65 1297.09 Q 186.65 1297.09 186.06 1298.57 Q 185.46 1300.05 185.91 1301.08 Q 186.35 1302.12 187.84 1302.71 Q 189.33 1303.30 190.23 1302.71 Q 191.12 1302.12 191.42 1300.34 Q 191.72 1298.57 191.27 1297.53 Q 190.83 1296.50 189.63 1296.20 Q 188.44 1295.91 187.55 1296.50 Z" />
    <path d="M 296.38 1297.09 Q 296.38 1297.09 295.78 1298.57 Q 295.18 1300.05 295.78 1300.94 Q 296.38 1301.82 298.17 1302.12 Q 299.95 1302.41 300.85 1301.82 Q 301.74 1301.23 301.74 1299.75 Q 301.74 1298.27 301.15 1297.39 Q 300.55 1296.50 299.36 1296.20 Q 298.17 1295.91 297.27 1296.50 Z" />
    <path d="M 313.67 1310.70 Q 313.67 1310.70 312.48 1311.58 Q 311.28 1312.47 310.69 1313.80 Q 310.09 1315.13 310.09 1316.91 Q 310.09 1318.68 310.99 1320.31 Q 311.88 1321.94 313.67 1323.42 Q 315.46 1324.90 317.55 1324.60 Q 319.63 1324.30 322.02 1322.23 Q 324.40 1320.16 325.60 1318.39 Q 326.79 1316.61 326.79 1315.13 Q 326.79 1313.65 325.30 1312.62 Q 323.81 1311.58 320.83 1310.99 Q 317.84 1310.40 315.76 1310.55 Z" />
    <path d="M 314.86 1339.09 Q 314.86 1339.09 313.67 1339.98 Q 312.48 1340.87 311.88 1342.50 Q 311.28 1344.12 311.28 1346.49 Q 311.28 1348.85 312.48 1350.19 Q 313.67 1351.52 316.06 1351.81 Q 318.44 1352.11 320.23 1351.81 Q 322.02 1351.52 323.21 1350.63 Q 324.40 1349.74 325.00 1348.12 Q 325.60 1346.49 325.60 1344.12 Q 325.60 1341.76 324.40 1340.42 Q 323.21 1339.09 320.83 1338.80 Q 318.44 1338.50 316.65 1338.80 Z" />
    <path d="M 431.44 1338.21 Q 431.44 1338.21 434.72 1338.21 Q 438.00 1338.21 439.94 1338.50 Q 441.88 1338.80 442.48 1339.39 Q 443.07 1339.98 443.22 1341.16 Q 443.37 1342.35 443.07 1344.12 Q 442.78 1345.90 441.58 1346.78 Q 440.39 1347.67 438.30 1347.67 Q 436.22 1347.67 434.43 1348.12 Q 432.64 1348.56 431.15 1349.45 Q 429.66 1350.33 428.61 1350.19 Q 427.57 1350.04 426.97 1348.85 Q 426.38 1347.67 426.38 1346.04 Q 426.38 1344.42 426.97 1342.35 Q 427.57 1340.28 429.51 1339.24 Z" />
    <path d="M 298.76 1355.36 Q 298.76 1355.36 296.97 1355.95 Q 295.18 1356.55 294.44 1358.02 Q 293.69 1359.50 293.99 1361.87 Q 294.29 1364.24 295.93 1365.72 Q 297.57 1367.19 300.55 1367.79 Q 303.53 1368.38 305.17 1367.64 Q 306.81 1366.90 307.11 1364.83 Q 307.41 1362.76 306.66 1360.98 Q 305.92 1359.21 304.13 1357.73 Q 302.34 1356.25 300.55 1355.81 Z" />
    <path d="M 448.14 1371.93 Q 448.14 1371.93 449.04 1372.52 Q 449.93 1373.11 450.23 1375.03 Q 450.53 1376.96 450.23 1380.21 Q 449.93 1383.46 449.33 1384.50 Q 448.74 1385.53 447.84 1384.35 Q 446.95 1383.17 446.65 1381.25 Q 446.35 1379.32 446.65 1376.66 Q 446.95 1374.00 447.55 1372.96 Z" />
    <path d="M 255.83 1387.01 Q 255.83 1387.01 258.81 1387.31 Q 261.79 1387.60 263.43 1388.49 Q 265.07 1389.38 265.37 1390.86 Q 265.67 1392.34 264.62 1393.08 Q 263.58 1393.82 261.19 1393.82 Q 258.81 1393.82 257.17 1392.93 Q 255.53 1392.04 254.63 1390.27 Q 253.74 1388.49 254.78 1387.75 Z" />
    <path d="M 192.32 1442.33 Q 192.32 1442.33 192.61 1444.69 Q 192.91 1447.06 193.96 1448.69 Q 195.00 1450.31 196.79 1451.20 Q 198.58 1452.09 199.47 1453.27 Q 200.37 1454.46 200.37 1455.94 Q 200.37 1457.41 201.41 1458.30 Q 202.45 1459.19 204.54 1459.48 Q 206.63 1459.78 207.67 1460.08 Q 208.72 1460.37 208.72 1460.67 Q 208.72 1460.96 208.72 1461.26 Q 208.72 1461.56 208.72 1461.85 Q 208.72 1462.15 206.33 1461.26 Q 203.94 1460.37 199.17 1458.30 Q 194.40 1456.23 191.72 1453.57 Q 189.04 1450.91 188.44 1447.65 Q 187.84 1444.40 188.14 1442.62 Q 188.44 1440.85 189.63 1440.55 Q 190.83 1440.26 191.57 1441.29 Z" />
    <path d="M 350.05 1450.61 Q 350.05 1450.61 351.83 1450.61 Q 353.62 1450.61 353.77 1451.65 Q 353.92 1452.68 352.43 1454.75 Q 350.94 1456.82 350.05 1457.86 Q 349.15 1458.89 348.85 1458.89 Q 348.56 1458.89 348.26 1458.89 Q 347.96 1458.89 347.66 1458.89 Q 347.36 1458.89 347.36 1457.86 Q 347.36 1456.82 347.66 1454.75 Q 347.96 1452.68 349.00 1451.65 Z" />
    <path d="M 237.64 1451.79 Q 237.64 1451.79 240.32 1451.79 Q 243.00 1451.79 244.50 1452.24 Q 245.99 1452.68 246.28 1453.57 Q 246.58 1454.46 245.99 1455.05 Q 245.39 1455.64 243.90 1455.94 Q 242.41 1456.23 240.92 1455.79 Q 239.43 1455.34 237.94 1454.16 Q 236.44 1452.98 237.04 1452.39 Z" />
    <path d="M 336.63 1470.43 Q 336.63 1470.43 336.93 1472.50 Q 337.22 1474.57 336.78 1476.20 Q 336.33 1477.82 335.14 1479.01 Q 333.94 1480.19 333.05 1480.63 Q 332.16 1481.08 331.56 1480.78 Q 330.96 1480.49 330.67 1479.30 Q 330.37 1478.12 330.37 1476.05 Q 330.37 1473.98 331.11 1472.50 Q 331.86 1471.02 333.35 1470.13 Q 334.84 1469.25 335.73 1469.84 Z" />
    <path d="M 125.23 1501.49 Q 125.23 1501.49 125.83 1506.22 Q 126.42 1510.95 124.63 1520.42 Q 122.84 1529.89 124.04 1515.69 Z" />
    <path d="M 139.54 1502.67 Q 139.54 1502.67 141.93 1502.67 Q 144.31 1502.67 145.95 1503.26 Q 147.59 1503.85 148.49 1505.04 Q 149.38 1506.22 149.68 1507.40 Q 149.98 1508.59 149.68 1509.77 Q 149.38 1510.95 148.34 1511.99 Q 147.29 1513.02 145.50 1513.91 Q 143.72 1514.80 142.97 1517.91 Q 142.22 1521.01 142.52 1526.34 Q 142.82 1531.66 143.57 1534.91 Q 144.31 1538.17 145.50 1539.35 Q 146.70 1540.53 147.00 1542.46 Q 147.29 1544.38 146.70 1547.04 Q 146.10 1549.70 144.76 1550.89 Q 143.42 1552.07 141.33 1551.77 Q 139.24 1551.48 138.50 1550.30 Q 137.75 1549.11 138.35 1547.04 Q 138.94 1544.97 138.94 1538.91 Q 138.94 1532.84 138.35 1522.79 Q 137.75 1512.73 138.65 1507.70 Z" />
    <path d="M 168.46 1914.43 Q 168.46 1914.43 171.15 1914.43 Q 173.83 1914.43 175.47 1914.72 Q 177.11 1915.02 177.71 1915.61 Q 178.30 1916.20 177.11 1916.65 Q 175.92 1917.09 172.94 1917.39 Q 169.95 1917.68 168.31 1917.39 Q 166.67 1917.09 166.38 1916.20 Q 166.08 1915.31 167.27 1914.87 Z" />
    <path d="M 378.97 2018.55 Q 378.97 2018.55 381.06 2018.55 Q 383.14 2018.55 384.19 2018.99 Q 385.23 2019.44 385.23 2020.32 Q 385.23 2021.21 383.89 2021.80 Q 382.55 2022.40 379.86 2022.69 Q 377.18 2022.99 376.14 2022.54 Q 375.09 2022.10 375.69 2020.92 Q 376.28 2019.73 377.63 2019.14 Z" />
    <path d="M 343.49 2275.90 Q 343.49 2275.90 344.68 2276.49 Q 345.87 2277.08 346.47 2278.71 Q 347.06 2280.33 347.06 2283.00 Q 347.06 2285.66 346.77 2286.40 Q 346.47 2287.14 345.87 2285.95 Q 345.28 2284.77 344.38 2284.03 Q 343.49 2283.29 342.29 2283.00 Q 341.10 2282.70 340.80 2281.67 Q 340.50 2280.63 341.10 2278.85 Q 341.70 2277.08 342.59 2276.49 Z" />
    <path d="M 80.21 2300.45 Q 80.21 2300.45 82.89 2300.74 Q 85.57 2301.04 88.56 2302.22 Q 91.54 2303.41 94.82 2305.48 Q 98.10 2307.55 100.63 2308.73 Q 103.17 2309.91 104.95 2310.21 Q 106.74 2310.51 108.08 2311.69 Q 109.43 2312.87 110.32 2314.94 Q 111.22 2317.01 113.15 2318.79 Q 115.09 2320.56 118.07 2322.04 Q 121.06 2323.52 123.44 2325.89 Q 125.83 2328.25 127.61 2331.51 Q 129.40 2334.76 131.79 2337.42 Q 134.17 2340.09 137.16 2342.16 Q 140.14 2344.23 142.22 2346.89 Q 144.31 2349.55 145.50 2352.81 Q 146.70 2356.06 149.08 2360.20 Q 151.47 2364.34 155.05 2369.37 Q 158.62 2374.40 160.41 2380.31 Q 162.20 2386.23 162.20 2393.03 Q 162.20 2399.84 161.46 2403.98 Q 160.71 2408.12 159.22 2409.60 Q 157.73 2411.08 152.66 2411.82 Q 147.59 2412.56 138.94 2412.56 Q 130.30 2412.56 125.53 2412.11 Q 120.76 2411.67 119.86 2410.78 Q 118.97 2409.90 115.99 2409.90 Q 113.00 2409.90 107.94 2410.78 Q 102.87 2411.67 99.89 2411.67 Q 96.90 2411.67 96.01 2410.78 Q 95.11 2409.90 92.58 2409.45 Q 90.05 2409.01 85.87 2409.01 Q 81.70 2409.01 79.16 2408.71 Q 76.63 2408.42 75.73 2407.82 Q 74.84 2407.23 74.09 2406.20 Q 73.35 2405.16 72.75 2403.68 Q 72.16 2402.20 71.86 2390.08 Q 71.56 2377.95 71.56 2355.17 Q 71.56 2332.40 72.31 2319.82 Q 73.05 2307.25 74.54 2304.89 Q 76.03 2302.52 78.12 2301.48 Z" />
    <path d="M 432.64 2306.36 Q 432.64 2306.36 435.92 2306.66 Q 439.20 2306.96 441.43 2307.99 Q 443.67 2309.03 444.86 2310.80 Q 446.06 2312.58 446.50 2325.59 Q 446.95 2338.61 446.65 2362.86 Q 446.35 2387.12 445.01 2399.99 Q 443.67 2412.85 441.28 2414.33 Q 438.90 2415.81 435.32 2416.55 Q 431.74 2417.29 426.97 2417.29 Q 422.20 2417.29 419.52 2416.99 Q 416.83 2416.70 416.24 2416.11 Q 415.64 2415.52 410.87 2415.52 Q 406.10 2415.52 397.16 2416.11 Q 388.21 2416.70 383.44 2416.70 Q 378.67 2416.70 378.07 2416.11 Q 377.48 2415.52 374.50 2415.07 Q 371.51 2414.63 366.15 2414.33 Q 360.78 2414.04 357.80 2413.59 Q 354.82 2413.15 354.22 2412.56 Q 353.62 2411.97 353.33 2408.86 Q 353.03 2405.75 353.03 2400.13 Q 353.03 2394.51 353.62 2390.96 Q 354.22 2387.41 355.41 2385.94 Q 356.61 2384.46 357.35 2382.68 Q 358.10 2380.91 358.39 2378.84 Q 358.69 2376.77 359.89 2374.55 Q 361.08 2372.33 363.17 2369.96 Q 365.25 2367.60 366.44 2365.52 Q 367.64 2363.45 367.94 2361.68 Q 368.23 2359.90 369.43 2358.13 Q 370.62 2356.35 372.71 2354.58 Q 374.79 2352.81 376.14 2351.03 Q 377.48 2349.26 378.07 2347.48 Q 378.67 2345.71 379.86 2344.52 Q 381.06 2343.34 382.84 2342.75 Q 384.63 2342.16 385.68 2340.97 Q 386.72 2339.79 387.02 2338.02 Q 387.32 2336.24 388.51 2334.32 Q 389.70 2332.40 391.79 2330.32 Q 393.88 2328.25 395.96 2326.92 Q 398.05 2325.59 400.14 2325.00 Q 402.22 2324.41 404.76 2322.49 Q 407.29 2320.56 410.28 2317.31 Q 413.26 2314.06 416.39 2311.84 Q 419.52 2309.62 422.80 2308.44 Q 426.08 2307.25 429.36 2306.81 Z" />
  </g>
  <g id="black" fill="#111111" fill-rule="evenodd">
    <path d="M 29.67 19.82 Q 29.67 19.82 32.80 20.11 Q 35.93 20.41 37.83 21.22 Q 39.73 22.04 40.40 23.37 Q 41.07 24.70 40.51 26.55 Q 39.95 28.40 38.17 30.76 Q 36.38 33.13 34.77 35.83 Q 33.17 38.53 31.75 41.56 Q 30.34 44.59 29.11 47.96 Q 27.88 51.32 26.83 55.02 Q 25.79 58.72 24.90 61.19 Q 24.00 63.67 23.26 64.93 Q 22.51 66.19 21.92 66.22 Q 21.32 66.26 20.87 65.08 Q 20.42 63.89 20.13 61.71 Q 19.83 59.53 19.68 56.35 Q 19.53 53.17 19.53 48.99 Q 19.53 44.81 19.68 39.64 Q 19.83 34.46 20.72 30.65 Q 21.62 26.84 23.26 24.40 Q 24.90 21.96 27.28 20.89 Z" />
    <path d="M 149.83 997.89 Q 149.83 997.89 150.87 998.03 Q 151.92 998.18 152.77 998.44 Q 153.63 998.70 154.30 999.07 Q 154.97 999.44 155.46 999.92 Q 155.94 1000.40 156.24 1000.99 Q 156.54 1001.58 156.35 1002.14 Q 156.16 1002.69 155.49 1003.21 Q 154.82 1003.73 153.67 1004.21 Q 152.51 1004.69 150.87 1005.13 Q 149.23 1005.58 148.08 1005.61 Q 146.92 1005.65 146.25 1005.28 Q 145.58 1004.91 145.39 1004.14 Q 145.21 1003.36 145.50 1002.18 Q 145.80 1000.99 146.29 1000.14 Q 146.77 999.29 147.44 998.77 Q 148.11 998.26 148.97 998.07 Z" />
    <path d="M 275.50 1287.33 Q 275.50 1287.33 276.70 1287.33 Q 277.89 1287.33 278.82 1287.62 Q 279.75 1287.92 280.42 1288.51 Q 281.10 1289.10 281.51 1289.99 Q 281.92 1290.88 282.06 1292.06 Q 282.21 1293.24 282.55 1294.39 Q 282.88 1295.54 283.41 1296.65 Q 283.93 1297.76 284.64 1298.83 Q 285.34 1299.90 286.24 1300.94 Q 287.13 1301.97 287.77 1303.15 Q 288.40 1304.34 288.77 1305.67 Q 289.15 1307.00 289.26 1308.48 Q 289.37 1309.96 289.22 1311.58 Q 289.07 1313.21 289.26 1314.39 Q 289.44 1315.58 289.97 1316.32 Q 290.49 1317.06 291.34 1317.35 Q 292.20 1317.65 293.39 1317.50 Q 294.59 1317.35 295.48 1317.80 Q 296.38 1318.24 296.97 1319.27 Q 297.57 1320.31 297.87 1321.94 Q 298.17 1323.56 298.17 1325.78 Q 298.17 1328.00 297.98 1329.55 Q 297.79 1331.11 297.42 1331.99 Q 297.05 1332.88 296.49 1333.10 Q 295.93 1333.33 295.18 1332.88 Q 294.44 1332.44 293.84 1331.81 Q 293.25 1331.18 292.80 1330.37 Q 292.35 1329.55 292.05 1328.56 Q 291.75 1327.56 291.61 1326.37 Q 291.46 1325.19 291.20 1324.78 Q 290.93 1324.38 290.56 1324.75 Q 290.19 1325.12 289.70 1326.26 Q 289.22 1327.41 288.62 1329.33 Q 288.03 1331.25 287.36 1332.55 Q 286.69 1333.84 285.94 1334.51 Q 285.19 1335.17 284.38 1335.21 Q 283.56 1335.25 282.66 1334.66 Q 281.77 1334.06 281.06 1332.77 Q 280.35 1331.48 279.83 1329.48 Q 279.31 1327.48 278.97 1324.78 Q 278.64 1322.08 278.49 1318.68 Q 278.34 1315.28 278.08 1312.62 Q 277.82 1309.96 277.44 1308.03 Q 277.07 1306.11 276.59 1304.93 Q 276.10 1303.75 275.50 1303.30 Q 274.91 1302.86 274.42 1302.08 Q 273.94 1301.30 273.57 1300.20 Q 273.19 1299.09 272.93 1297.64 Q 272.67 1296.20 272.52 1294.43 Q 272.37 1292.65 272.56 1291.32 Q 272.75 1289.99 273.27 1289.10 Q 273.79 1288.22 274.65 1287.77 Z" />
    <path d="M 220.49 1303.15 Q 220.49 1303.15 222.43 1305.67 Q 224.37 1308.18 225.90 1310.36 Q 227.43 1312.55 228.54 1314.39 Q 229.66 1316.24 230.37 1317.76 Q 231.08 1319.27 231.38 1320.46 Q 231.67 1321.64 231.75 1322.31 Q 231.82 1322.97 231.67 1323.12 Q 231.53 1323.27 231.15 1322.90 Q 230.78 1322.53 230.18 1321.64 Q 229.59 1320.75 228.77 1320.01 Q 227.95 1319.27 226.90 1318.68 Q 225.86 1318.09 224.59 1317.65 Q 223.33 1317.20 221.83 1316.91 Q 220.34 1316.61 219.19 1315.76 Q 218.03 1314.91 217.21 1313.51 Q 216.39 1312.10 215.91 1310.14 Q 215.42 1308.18 215.28 1305.67 Q 215.13 1303.15 215.50 1301.90 Q 215.87 1300.64 216.77 1300.64 Q 217.66 1300.64 219.08 1301.90 Z" />
    <path d="M 354.37 1300.05 Q 354.37 1300.05 354.82 1300.34 Q 355.26 1300.64 355.60 1301.27 Q 355.93 1301.90 356.16 1302.86 Q 356.38 1303.82 356.49 1305.11 Q 356.61 1306.41 356.61 1308.03 Q 356.61 1309.66 356.42 1311.51 Q 356.23 1313.36 355.86 1315.43 Q 355.49 1317.50 354.93 1319.79 Q 354.37 1322.08 353.62 1324.60 Q 352.88 1327.11 352.24 1328.59 Q 351.61 1330.07 351.09 1330.52 Q 350.57 1330.96 350.16 1330.37 Q 349.75 1329.78 349.45 1328.15 Q 349.15 1326.52 349.08 1324.60 Q 349.00 1322.68 349.15 1320.46 Q 349.30 1318.24 349.67 1315.73 Q 350.05 1313.21 350.64 1310.40 Q 351.24 1307.59 351.80 1305.56 Q 352.36 1303.52 352.88 1302.27 Q 353.40 1301.01 353.88 1300.53 Z" />
    <path d="M 192.17 1353.59 Q 192.17 1353.59 193.81 1353.59 Q 195.45 1353.59 196.90 1353.74 Q 198.35 1353.88 199.62 1354.18 Q 200.89 1354.48 201.97 1354.92 Q 203.05 1355.36 203.94 1355.95 Q 204.84 1356.55 205.21 1357.10 Q 205.58 1357.66 205.44 1358.17 Q 205.29 1358.69 204.62 1359.17 Q 203.94 1359.65 202.75 1360.10 Q 201.56 1360.54 200.48 1360.69 Q 199.40 1360.83 198.43 1360.69 Q 197.46 1360.54 196.60 1360.10 Q 195.75 1359.65 195.00 1358.91 Q 194.25 1358.17 193.40 1357.62 Q 192.54 1357.06 191.57 1356.69 Q 190.60 1356.32 189.52 1356.14 Q 188.44 1355.95 187.25 1355.95 Q 186.06 1355.95 185.31 1355.88 Q 184.56 1355.81 184.27 1355.66 Q 183.97 1355.51 184.12 1355.29 Q 184.27 1355.07 184.86 1354.77 Q 185.46 1354.48 186.32 1354.25 Q 187.17 1354.03 188.29 1353.88 Q 189.41 1353.74 190.79 1353.66 Z" />
    <path d="M 216.62 1442.77 Q 216.62 1442.77 218.85 1442.92 Q 221.09 1443.07 222.84 1443.29 Q 224.59 1443.51 225.86 1443.81 Q 227.13 1444.10 227.91 1444.47 Q 228.69 1444.84 228.99 1445.29 Q 229.29 1445.73 229.10 1446.06 Q 228.92 1446.40 228.25 1446.62 Q 227.57 1446.84 226.42 1446.95 Q 225.26 1447.06 223.62 1447.06 Q 221.98 1447.06 220.53 1446.91 Q 219.08 1446.77 217.81 1446.47 Q 216.54 1446.17 215.46 1445.73 Q 214.38 1445.29 213.49 1444.69 Q 212.59 1444.10 212.48 1443.70 Q 212.37 1443.29 213.04 1443.07 Q 213.71 1442.85 215.16 1442.81 Z" />
  </g>
</svg>
